<svg xmlns="http://www.w3.org/2000/svg" xml:space="preserve" width="492" height="512" fill-rule="evenodd" clip-rule="evenodd" image-rendering="optimizeQuality" shape-rendering="geometricPrecision" text-rendering="geometricPrecision" viewBox="0 0 492 512.324"><path fill="#fff" d="m175.664 257.38 73.416-73.454c3.881-3.88 4.37-4.043 8.395 0l73.218 73.454v73.67h-54.396v-49.772a6.13 6.13 0 0 0-6.11-6.112l-33.98.002a6.126 6.126 0 0 0-6.11 6.109v49.774H175.7V257.38zm75.212-131.44-109.1 102.447 26.907 14.125 77.061-77.714c6.6-6.637 6.673-6.782 13.218-.291l78.712 77.969 26.908-14.125-109.264-102.574c-1.959-1.814-2.249-2.05-4.442.163z"/><path d="M230.544 472.028c-29.533-2.33-56.596-9.515-82.553-21.916-25.033-11.96-43.283-24.894-63.648-45.111-35.447-35.19-57.136-77.462-65.63-127.914-2.557-15.184-2.557-55.215 0-70.398C29.916 140.139 65.871 84.985 122.13 48.045 185.269 6.587 270.65-.161 339.687 30.85c97.747 43.908 152.812 147.403 134.004 251.858-17.926 99.548-100.07 176.819-200.12 188.247-13.345 1.524-31.554 1.978-43.027 1.072m-6.004-152.262c0-22.964.204-26.413 1.656-28.018 1.493-1.65 3.515-1.83 20.513-1.83 17.523 0 18.998.142 20.858 2.001 1.899 1.9 2.001 3.336 2.001 28.018v26.017h55.035l-.042-37.274-.043-37.273-37.881-38.275c-22.62-22.854-38.625-38.274-39.728-38.274-1.096 0-17.414 15.564-40.126 38.27l-38.279 38.269v74.557h56.036zm-21.35-103.404c21.918-22.295 40.631-40.784 41.587-41.087.955-.304 2.434-.161 3.286.316s19.793 19.074 42.09 41.328l40.54 40.46 12.215-6.19c6.718-3.406 13.033-6.796 14.034-7.533 1.657-1.221-3.141-5.997-53.887-53.636-30.639-28.763-56.098-52.161-56.577-51.997s-24.096 22.138-52.483 48.83-53.463 50.15-55.725 52.127l-4.113 3.597 13.421 7.134c7.382 3.924 13.948 7.146 14.592 7.16s19.103-18.215 41.02-40.51" style="fill:teal;fill-rule:evenodd;stroke-width:1.00063"/></svg>