<svg xmlns="http://www.w3.org/2000/svg" viewBox="0 0 384 512"><!--!Font Awesome Free 6.7.2 by @fontawesome - https://fontawesome.com License - https://fontawesome.com/license/free Copyright 2025 Fonticons, Inc.--><path d="M215 72L126.1 161H24c-13.3 0-24 10.7-24 24v144c0 13.3 10.7 24 24 24h102.1l89 89c15 15 41 4.5 41-17V89c0-21.5-26-32-41-17zm123.2 108.1c-11.6-6.3-26.2-2.2-32.6 9.5-6.4 11.6-2.2 26.2 9.5 32.6C328 229.3 336 242.6 336 257c0 14.4-8 27.7-20.9 34.8-11.6 6.4-15.8 21-9.5 32.6 6.4 11.7 21.1 15.8 32.6 9.5 28.2-15.6 45.8-45 45.8-76.9s-17.5-61.3-45.8-76.9z"/></svg>